<?xml version="1.0" standalone="no"?><!DOCTYPE svg PUBLIC "-//W3C//DTD SVG 1.1//EN" "http://www.w3.org/Graphics/SVG/1.1/DTD/svg11.dtd"><svg t="1724756032866" class="icon" viewBox="0 0 1024 1024" version="1.1" xmlns="http://www.w3.org/2000/svg" p-id="28490" xmlns:xlink="http://www.w3.org/1999/xlink" width="200" height="200"><path d="M704 0l256 256v576a192 192 0 0 1-192 192H256a192 192 0 0 1-192-192V192a192 192 0 0 1 192-192h448z m-64 64H256a128 128 0 0 0-128 128v640a128 128 0 0 0 128 128h512a128 128 0 0 0 128-128V320h-128a128 128 0 0 1-128-128V64zM511.744 768a31.168 31.168 0 0 1 32.256 31.744 32.128 32.128 0 0 1-32.256 32.256 31.104 31.104 0 0 1-31.744-32.256c0-9.152 2.624-16.64 8.96-22.592A30.08 30.08 0 0 1 511.744 768z m6.464-448c46.912 0 84.224 12.16 112.768 37.76 27.136 24.192 41.024 57.728 41.024 100.48 0 32-9.536 59.84-27.84 83.328-7.296 8.576-27.072 27.072-59.328 54.848a147.84 147.84 0 0 0-34.368 39.168 97.408 97.408 0 0 0-13.952 52.032V704h-58.56v-16.384c0-23.488 4.416-44.16 13.184-61.952 10.24-21.376 34.432-48.448 73.984-82.688 11.712-11.392 20.48-19.904 24.896-25.6 14.592-17.856 21.952-36.352 21.952-56.32 0-28.48-8.832-50.56-24.96-66.24-16.768-17.088-40.96-24.96-71.68-24.96-36.672 0-63.744 11.392-81.28 34.944-16.128 19.904-24.192 46.976-24.192 81.92H352c0-49.92 13.888-89.792 43.2-119.68C424.512 335.68 465.472 320 518.208 320zM704 90.56V192a64 64 0 0 0 56.512 63.552L768 256h101.44L704 90.56z" fill="#333333" p-id="28491"></path></svg>