<?xml version="1.0" standalone="no"?><!DOCTYPE svg PUBLIC "-//W3C//DTD SVG 1.1//EN" "http://www.w3.org/Graphics/SVG/1.1/DTD/svg11.dtd"><svg t="1724663756507" class="icon" viewBox="0 0 1024 1024" version="1.1" xmlns="http://www.w3.org/2000/svg" p-id="21102" xmlns:xlink="http://www.w3.org/1999/xlink" width="200" height="200"><path d="M887.844875 1024l-751.689751 0c-73.750693 0-136.155125-62.404432-136.155125-136.155125L0 136.155125c0-73.750693 62.404432-136.155125 136.155125-136.155125l751.689751 0c73.750693 0 136.155125 62.404432 136.155125 136.155125l0 751.689751C1024 964.432133 964.432133 1024 887.844875 1024zM138.99169 56.731302c-42.548476 0-79.423823 36.875346-79.423823 79.423823l0 751.689751c0 42.548476 36.875346 79.423823 79.423823 79.423823l751.689751 0c42.548476 0 79.423823-36.875346 79.423823-79.423823L970.105263 136.155125c0-42.548476-36.875346-79.423823-79.423823-79.423823L138.99169 56.731302z" p-id="21103"></path><path d="M212.742382 831.113573l0-340.387812 207.069252 0 0-300.6759 113.462604 0 0 104.952909 277.98338 0 0 73.750693-277.98338 0 0 119.135734 224.088643 0 0 226.925208c2.836565 79.423823-34.038781 116.299169-107.789474 113.462604L212.742382 831.113573 212.742382 831.113573zM323.368421 763.036011l280.819945 0c31.202216 0 45.385042-17.019391 45.385042-48.221607L649.573407 561.639889l-326.204986 0L323.368421 763.036011z" p-id="21104"></path></svg>