<svg width="370" height="170" xmlns="http://www.w3.org/2000/svg" version="1.1" template-width="370" template-height="199" sillyvg="true" node-id="1">
 <defs node-id="77">
  <linearGradient y2="1" y1="-1.85964" x2="0.68869" x1="-0.47019" spreadMethod="pad" node-id="7" id="linearGradient-1" gradientUnits="objectBoundingBox">
   <stop stop-color="#d2d2d2" offset="0"/>
   <stop stop-opacity="0" stop-color="#d2d2d2" offset="1"/>
  </linearGradient>
  <linearGradient y2="0.55587" y1="-1.10864" x2="0.54502" x1="1.19" spreadMethod="pad" node-id="10" id="linearGradient-2" gradientUnits="objectBoundingBox">
   <stop stop-color="#d2d2d2" offset="0"/>
   <stop stop-opacity="0" stop-color="#d2d2d2" offset="1"/>
  </linearGradient>
  <linearGradient y2="1" y1="-2.21157" x2="0.5" x1="0.5" spreadMethod="pad" node-id="13" id="linearGradient-3" gradientUnits="objectBoundingBox">
   <stop stop-color="#d2d2d2" offset="0"/>
   <stop stop-opacity="0" stop-color="#d2d2d2" offset="1"/>
  </linearGradient>
  <linearGradient y2="1.04736" y1="-0.9778" x2="0.38826" x1="1.00081" spreadMethod="pad" node-id="16" id="linearGradient-4" gradientUnits="objectBoundingBox">
   <stop stop-color="#d2d2d2" offset="0"/>
   <stop stop-opacity="0" stop-color="#d2d2d2" offset="1"/>
  </linearGradient>
  <linearGradient y2="1" y1="-2.30116" x2="0.5" x1="0.5" spreadMethod="pad" node-id="19" id="linearGradient-5" gradientUnits="objectBoundingBox">
   <stop stop-color="#d2d2d2" offset="0"/>
   <stop stop-opacity="0" stop-color="#d2d2d2" offset="1"/>
  </linearGradient>
  <linearGradient y2="1" y1="-1.69203" x2="0.5" x1="0.5" spreadMethod="pad" node-id="22" id="linearGradient-6" gradientUnits="objectBoundingBox">
   <stop stop-color="#d2d2d2" offset="0"/>
   <stop stop-opacity="0" stop-color="#d2d2d2" offset="1"/>
  </linearGradient>
  <linearGradient y2="0.57205" y1="0.42798" x2="0.67608" x1="0.3238" spreadMethod="pad" node-id="25" id="linearGradient-7" gradientUnits="objectBoundingBox">
   <stop stop-color="#f6f6f6" offset="0"/>
   <stop stop-color="#e0e0e0" offset="1"/>
  </linearGradient>
  <linearGradient y2="0.57528" y1="0.43392" x2="0.79938" x1="0.20086" spreadMethod="pad" node-id="28" id="linearGradient-8" gradientUnits="objectBoundingBox">
   <stop stop-color="#f9f9f9" offset="0"/>
   <stop stop-color="#e0e0e0" offset="1"/>
  </linearGradient>
  <linearGradient y2="0.5386" y1="0.42651" x2="0.60858" x1="0.33444" spreadMethod="pad" node-id="31" id="linearGradient-9" gradientUnits="objectBoundingBox">
   <stop stop-color="#f6f6f6" offset="0"/>
   <stop stop-color="#e0e0e0" offset="1"/>
  </linearGradient>
  <linearGradient y2="0.57298" y1="0.42705" x2="0.809" x1="0.191" spreadMethod="pad" node-id="34" id="linearGradient-10" gradientUnits="objectBoundingBox">
   <stop stop-color="#f6f6f6" offset="0"/>
   <stop stop-color="#e0e0e0" offset="1"/>
  </linearGradient>
  <linearGradient y2="1.11985" y1="-0.13416" x2="0.90098" x1="-0.0071" spreadMethod="pad" node-id="37" id="linearGradient-11" gradientUnits="objectBoundingBox">
   <stop stop-color="#ffffff" offset="0"/>
   <stop stop-color="#478ffc" offset="1"/>
  </linearGradient>
 </defs>
 <g>
  <title>Layer 1</title>
  <g id="svg_1" node-id="144">
   <g id="svg_2" node-id="145">
    <g id="svg_3" node-id="146">
     <path target-y="99.79444" target-x="58.8" target-width="63.9" target-height="65.4" node-id="44" id="路径" group-id="1,2,3" fill-rule="nonzero" fill="url(#linearGradient-1)" d="m73.82632,132.29l-3,-1.6l-2.9,-2.2l-2.7,-2.5l-2.4,-2.8l-1.8,-3.1l-1.2,-3.3l-0.5,-2.2l0.4,-4.6l1.8,0.1l1.4,1.2l3.4,4.8l3,3.4l1.5,1.3l1.7,0.5l0.5,-0.5l0.4,-1.1l0,-2.2l-0.6,-4.5l-4.2,-18.4l-1,-9.4l0.1,-3.5l0.5,-2.9l0.9,-2.5l1.2,-2.3l1.4,-1.7l1.5,-1.2l1.7,-0.9l1.8,-0.4l1.8,0.1l1.8,0.6l1.8,1.1l1.7,1.8l1.5,2.1l1.3,2.9l1.1,3.8l1.7,9.1l1.5,6.1l1.1,2.8l1.1,1.8l0.9,0.9l0.9,0.3l1,-0.2l1,-0.7l5.3,-10.3l2.2,-2.2l1.5,-0.7l2.9,-0.2l3.3,1.3l1.8,1.5l2.9,3.6l2.9,5.9l2.4,7.6l0.8,4l0.3,3.9l-0.4,5.1l-1.6,4.2l-1.3,1.8l-1.7,1.5l-4.5,2.3l-7.3,2.1l-5,0.9l-10.2,0.6l-5.1,-0.2l-4.6,-0.6l-4.3,-0.9l-3.4,-1.2z"/>
     <path target-y="108.29444" target-x="271" target-width="59.20001" target-height="64.9" node-id="45" id="路径" group-id="1,2,3" fill-rule="nonzero" fill="url(#linearGradient-2)" d="m273.72632,124.09l-1.1,-3.1l-0.8,-3.6l-0.3,-3.6l0.2,-3.7l0.4,-2.4l1.6,-4.4l2.7,-3.7l1.8,-1.4l0.7,0.6l0.8,1.6l-0.7,6.8l-0.1,4.5l0.3,2l0.4,1.1l0.5,0.4l0.7,0l1,-0.6l1.5,-1.6l2.6,-3.8l9.3,-16.4l2.6,-4l2.9,-3.7l2.4,-2.5l2.4,-1.8l2.2,-1.3l2.4,-0.9l2.2,-0.3l2,0l1.9,0.6l1.5,0.9l1.3,1.3l1,1.6l0.5,2l0.1,2.6l-0.3,2.5l-1,3l-1.7,3.6l-6.4,10.7l-2.4,5.5l-0.5,2.1l0.1,1.3l0.5,0.8l0.8,0.6l1.2,0.1l10.9,-4.2l3.2,-0.1l1.5,0.5l1.3,0.7l1.8,2.2l0.7,2.1l0.4,4.6l-0.3,2.3l-1,3.4l-1.6,3.3l-2.1,3.2l-2.6,2.8l-4.3,2.9l-4.9,1.7l-2.7,0.3l-2.9,-0.1l-9.7,-2.2l-5.2,-1.8l-5.1,-2.2l-6.2,-3.6l-5.1,-4.3l-1.9,-2.3l-1.4,-2.6z"/>
     <path target-y="146.19444" target-x="0" target-width="370.5" target-height="51.90001" node-id="46" id="路径" group-id="1,2,3" fill-rule="nonzero" fill="url(#linearGradient-3)" d="m371.02632,168.09l-8.8,-5.8l-9.3,-5.5l-9.9,-5.3l-10.3,-5l-10.5,-4.6l-10.8,-4.2l-11.4,-3.9l-11.7,-3.6l-11.8,-3.2l-12.2,-2.8l-12.5,-2.4l-12.9,-2l-12.8,-1.5l-13.2,-1.2l-13.4,-0.7l-13.7,-0.2l-13.8,0.2l-13.4,0.7l-13.1,1.2l-12.9,1.5l-12.9,2l-12.5,2.4l-12.2,2.8l-11.8,3.2l-11.7,3.6l-11.3,3.9l-10.9,4.2l-10.5,4.6l-10.3,5l-9.8,5.3l-9.4,5.5l-8.8,5.8l370.5,0z"/>
     <path target-y="102.79444" target-x="259.4" target-width="35.60001" target-height="55.7" node-id="47" id="形状结合" group-id="1,2,3" fill-rule="nonzero" fill="url(#linearGradient-4)" d="m294.02632,72.79l-2.5,4.1l-0.8,2.3l-0.4,2.4l0,2.4l0.6,2.4l0.8,1.4l3,3.1l0.6,1.3l0.2,2l-0.4,2.2l-1.8,4.1l-4.8,6.8l-2.8,3.1l1.6,1.7l1.1,2l0.6,2.1l0,2.4l-1.4,4.4l-1.3,1.9l-2.6,2.8l-1.3,0.8l-2.9,0l-4.5,-1l-4.4,-1.5l-4.3,-1.8l-3.8,-2.3l-1.4,-1.5l-1,-1.8l-0.2,-2.6l1.3,-1.8l3,-1.8l1.1,-1.1l0.7,-1.7l1.1,-5.7l0.6,-6.4l1.2,-3.2l0.9,-0.9l1.3,-0.7l5.2,-1l3.1,-1.8l2.4,-3.7l2.8,-6.1l1.7,-2.6l1.1,-1l6.6,-3.7zm-10.7,20.7l-6.5,9.4l-3.8,7.6l-1.4,4.2l-0.7,2.9l-0.5,5.7l4.3,0l1.7,-10.2l1.1,-4.5l3.4,-10.2l2.4,-4.9z"/>
     <path target-y="45.89444" target-x="76.9" target-width="32.8" target-height="22.7" node-id="48" id="路径" group-id="1,2,3" fill-rule="nonzero" fill="url(#linearGradient-5)" d="m104.62632,25.69l-0.2,-2.3l-0.8,-2.2l-1.2,-1.8l-1.6,-1.6l-2,-1.1l-2.2,-0.7l-2.4,-0.1l-2.2,0.4l-2.1,0.9l-1.7,1.3l-1.5,1.8l-1,2.1l-2.2,0.3l-2,0.8l-1.7,1.2l-1.3,1.8l-0.8,2l-0.3,2.2l0.3,2.1l0.9,2l1.4,1.7l1.7,1.2l2.1,0.8l20,0.1l3.2,-0.8l2.2,-2.2l0.7,-1.4l0.3,-1.7l-0.1,-1.6l-0.5,-1.5l-2,-2.5l-3,-1.2z"/>
     <path target-y="31.69445" target-x="144.5" target-width="40.60001" target-height="28.4" node-id="49" id="路径" group-id="1,2,3" fill-rule="nonzero" fill="url(#linearGradient-6)" d="m178.62632,13.89l-0.6,-3.8l-0.8,-1.8l-1.5,-2.3l-2,-1.9l-1.6,-1l-3.6,-1.2l-2,-0.2l-3.7,0.5l-2.5,1.2l-2.3,1.6l-1.2,1.4l-1.8,3.4l-3.6,0.7l-3,1.8l-2.1,2.7l-1.2,3.2l-0.1,1.9l0.7,3.5l1.8,3l2.6,2.2l3.3,1.2l1.9,0.1l22.2,0l2.1,-0.3l1.8,-0.7l1.7,-1.2l1.2,-1.5l0.9,-1.8l0.4,-2.1l-0.1,-2.1l-0.7,-1.9l-1.1,-1.7l-1.4,-1.3l-1.8,-1l-1.9,-0.6z"/>
    </g>
    <path target-y="136.49445" target-x="132" target-width="100.10001" target-height="23.60001" node-id="50" id="矩形" group-id="1,2" fill-rule="nonzero" fill="url(#linearGradient-7)" d="m132.52632,106.49l100.1,0l0,23.6l-100.1,0l0,-23.6z"/>
    <path target-y="143.79445" target-x="143.5" target-width="8.89999" target-height="9" node-id="51" id="椭圆形" group-id="1,2" fill-rule="nonzero" fill="#ffffff" d="m152.92632,118.29l-0.2,1.2l-1.1,2l-1.9,1.1l-1.2,0.2l-2.3,-0.6l-1.6,-1.6l-0.4,-1.1l-0.2,-1.2l0.6,-2.2l1.6,-1.6l2.3,-0.7l1.2,0.2l1.9,1.2l1.1,1.9l0.2,1.2z"/>
    <path target-y="146.79445" target-x="172.6" target-width="4.5" target-height="4.3" node-id="52" id="椭圆形" group-id="1,2" fill-rule="nonzero" fill="#d0d0d0" d="m177.62632,118.89l-0.2,0.9l-1.2,1.3l-1.8,0l-1.3,-1.3l0,-1.8l1.3,-1.2l1.8,0l1.2,1.2l0.2,0.9z"/>
    <path target-y="146.79445" target-x="180.7" target-width="4.40001" target-height="4.3" node-id="53" id="椭圆形" group-id="1,2" fill-rule="nonzero" fill="#ffffff" d="m185.62632,118.89l-0.2,0.9l-1.2,1.3l-1.8,0l-1.2,-1.3l0,-1.8l1.2,-1.2l1.8,0l1.2,1.2l0.2,0.9z"/>
    <path target-y="146.59445" target-x="189.2" target-width="35.60001" target-height="4.7" node-id="54" id="矩形" group-id="1,2" fill-rule="nonzero" fill="#ffffff" d="m191.42632,116.59l32.1,0l1.3,0.5l0.5,1.3l-0.2,1.8l-0.9,0.9l-32.8,0.2l-1.2,-0.6l-0.5,-1.2l0.1,-1.8l0.4,-0.6l1.2,-0.5z"/>
    <path target-y="132.69444" target-x="136.7" target-width="89.10001" target-height="3.8" node-id="55" id="矩形" group-id="1,2" fill-rule="nonzero" fill="#cfcfcf" d="m137.22632,102.69l89.1,0l0,3.8l-89.1,0l0,-3.8z"/>
    <path target-y="160.09445" target-x="136.7" target-width="89.10001" target-height="3.89999" node-id="56" id="矩形" group-id="1,2" fill-rule="nonzero" fill="#cfcfcf" d="m137.22632,130.09l89.1,0l0,3.9l-89.1,0l0,-3.9z"/>
    <g id="svg_4" node-id="147">
     <path target-y="187.59445" target-x="144.2" target-width="5.5" target-height="3" node-id="57" id="矩形" group-id="1,2,4" fill-rule="nonzero" fill-opacity="0.65" fill="#b5b5b5" d="m144.72632,157.59l5.5,0l0,3l-5.5,0l0,-3z"/>
    </g>
    <path target-y="81.49445" target-x="132" target-width="100.10001" target-height="23.7" node-id="58" id="路径" group-id="1,2" fill-rule="nonzero" fill="url(#linearGradient-8)" d="m139.12632,51.49l86.8,0l1.9,0.3l1.5,0.6l1.3,1.1l1.1,1.3l0.6,1.6l0.3,1.8l0,17l-100.1,0l0,-17l0.2,-1.8l0.7,-1.5l1,-1.4l1.4,-1.1l1.6,-0.6l1.7,-0.3z"/>
    <path target-y="88.89445" target-x="143.5" target-width="8.89999" target-height="8.89999" node-id="59" id="椭圆形" group-id="1,2" fill-rule="nonzero" fill="#ffffff" d="m152.92632,63.39l-0.2,1.2l-1.1,1.9l-1.9,1.2l-1.2,0.1l-2.3,-0.6l-1.6,-1.6l-0.4,-1l-0.2,-1.2l0.6,-2.3l1.6,-1.6l2.3,-0.6l1.2,0.2l1.9,1.1l1.1,2l0.2,1.2z"/>
    <path target-y="91.89445" target-x="172.6" target-width="4.5" target-height="4.2" node-id="60" id="椭圆形" group-id="1,2" fill-rule="nonzero" fill="#d0d0d0" d="m177.62632,63.99l-0.2,0.9l-1.2,1.2l-1.8,0l-1.3,-1.2l0,-1.8l1.3,-1.2l1.8,0l1.2,1.2l0.2,0.9z"/>
    <path target-y="91.89445" target-x="180.7" target-width="4.40001" target-height="4.2" node-id="61" id="椭圆形" group-id="1,2" fill-rule="nonzero" fill="#ffffff" d="m185.62632,63.99l-0.2,0.9l-1.2,1.2l-1.8,0l-1.2,-1.2l0,-1.8l1.2,-1.2l1.8,0l1.2,1.2l0.2,0.9z"/>
    <path target-y="91.69444" target-x="189.2" target-width="35.60001" target-height="4.6" node-id="62" id="矩形" group-id="1,2" fill-rule="nonzero" fill="#ffffff" d="m191.42632,61.69l32.1,0l1.3,0.5l0.5,1.2l-0.2,1.8l-0.9,1l-32.8,0.1l-1.2,-0.5l-0.5,-1.2l0.1,-1.9l0.4,-0.5l1.2,-0.5z"/>
    <path target-y="163.99445" target-x="132" target-width="100.10001" target-height="23.60001" node-id="63" id="路径" group-id="1,2" fill-rule="nonzero" fill="url(#linearGradient-9)" d="m132.52632,133.99l100.1,0l0,17l-0.3,1.8l-0.6,1.5l-1.1,1.4l-1.3,1l-1.5,0.7l-1.9,0.2l-86.8,0l-1.8,-0.2l-1.5,-0.7l-1.4,-1l-1,-1.4l-0.7,-1.5l-0.2,-1.8l0,-17z"/>
    <path target-y="171.29445" target-x="143.5" target-width="8.89999" target-height="8.89999" node-id="64" id="椭圆形" group-id="1,2" fill-rule="nonzero" fill="#ffffff" d="m152.92632,145.79l-0.2,1.2l-1.1,1.9l-1.9,1.2l-1.2,0.1l-2.3,-0.6l-1.6,-1.6l-0.4,-1l-0.2,-1.2l0.6,-2.3l1.6,-1.6l2.3,-0.6l1.2,0.2l1.9,1.1l1.1,2l0.2,1.2z"/>
    <path target-y="172.79445" target-x="172.5" target-width="4.60001" target-height="4.7" node-id="65" id="椭圆形" group-id="1,2" fill-rule="nonzero" fill="#d0d0d0" d="m177.62632,145.09l-0.7,1.7l-1.6,0.7l-1.7,-0.7l-0.6,-1.7l0.6,-1.6l1.7,-0.7l1.6,0.7l0.7,1.6z"/>
    <path target-y="172.99445" target-x="180.7" target-width="4.40001" target-height="4.3" node-id="66" id="椭圆形" group-id="1,2" fill-rule="nonzero" fill="#ffffff" d="m185.62632,145.09l-0.2,1l-1.2,1.2l-1.8,0l-1.2,-1.2l0,-1.9l1.2,-1.2l1.8,0l1.2,1.2l0.2,0.9z"/>
    <path target-y="172.79445" target-x="189.2" target-width="35.60001" target-height="4.7" node-id="67" id="矩形" group-id="1,2" fill-rule="nonzero" fill="#ffffff" d="m191.42632,142.79l32.1,0l1.3,0.5l0.5,1.3l-0.2,1.8l-0.9,0.9l-32.8,0.2l-1.2,-0.5l-0.5,-1.3l0.1,-1.8l0.4,-0.6l1.2,-0.5z"/>
    <path target-y="108.99445" target-x="132" target-width="100.10001" target-height="23.7" node-id="68" id="矩形" group-id="1,2" fill-rule="nonzero" fill="url(#linearGradient-10)" d="m132.52632,78.99l100.1,0l0,23.7l-100.1,0l0,-23.7z"/>
    <path target-y="116.39445" target-x="143.5" target-width="8.89999" target-height="8.89999" node-id="69" id="椭圆形" group-id="1,2" fill-rule="nonzero" fill="#ffffff" d="m152.92632,90.79l-0.2,1.2l-1.1,2l-1.9,1.1l-1.2,0.2l-2.3,-0.6l-1.6,-1.6l-0.4,-1.1l-0.2,-1.2l0.6,-2.2l1.6,-1.6l2.3,-0.6l1.2,0.2l1.9,1.1l1.1,1.9l0.2,1.2z"/>
    <path target-y="119.29444" target-x="172.6" target-width="4.5" target-height="4.3" node-id="70" id="椭圆形" group-id="1,2" fill-rule="nonzero" fill="#d0d0d0" d="m177.62632,91.49l-0.2,0.9l-1.2,1.2l-1.8,0l-1.3,-1.2l0,-1.8l1.3,-1.3l1.8,0l1.2,1.3l0.2,0.9z"/>
    <path target-y="119.09444" target-x="180.5" target-width="4.60001" target-height="4.7" node-id="71" id="椭圆形" group-id="1,2" fill-rule="nonzero" fill="#ffffff" d="m185.62632,91.49l-0.7,1.6l-1.6,0.7l-1.6,-0.7l-0.7,-1.6l0.7,-1.7l1.6,-0.7l1.6,0.7l0.7,1.7z"/>
    <path target-y="119.09444" target-x="189.2" target-width="35.60001" target-height="4.7" node-id="72" id="矩形" group-id="1,2" fill-rule="nonzero" fill="#ffffff" d="m191.42632,89.09l32.1,0l1.3,0.6l0.5,1.2l-0.2,1.8l-0.9,0.9l-32.8,0.2l-1.2,-0.5l-0.5,-1.3l0.1,-1.8l0.4,-0.5l1.2,-0.6z"/>
    <path target-y="105.19444" target-x="136.7" target-width="89.10001" target-height="3.8" node-id="73" id="矩形" group-id="1,2" fill-rule="nonzero" fill="#cfcfcf" d="m137.22632,75.19l89.1,0l0,3.8l-89.1,0l0,-3.8z"/>
    <path target-y="127.99445" target-x="198.9" target-width="60" target-height="66.89999" node-id="74" id="路径" group-id="1,2" fill-rule="nonzero" fill="url(#linearGradient-11)" d="m254.92632,106.29l-7,-0.2l-4.5,-0.7l-4.7,-2l-6.8,-4.7l-2.6,-0.7l-2.5,0.7l-3.5,2.9l-5,2.9l-2.6,0.9l-4.7,0.7l-8.6,0.5l-1.5,0.9l-1.3,1.8l-0.2,11.7l0.3,6.4l0.7,5.6l1.1,4.7l1.5,4.6l1.8,3.9l4.2,6.5l4.5,4.7l3.7,2.8l3.3,1.9l3.2,1.4l4.8,1.4l1.6,0l5,-1.4l6.5,-3.3l5.9,-4.9l4.6,-5.7l1.9,-3.3l1.8,-4l1.5,-4.6l1.1,-4.7l0.7,-5.5l0.3,-6.5l-0.2,-11.6l-1.2,-1.9l-1.4,-0.9l-1.7,-0.3z"/>
    <path target-y="142.69444" target-x="215" target-width="27" target-height="33" node-id="75" id="形状" group-id="1,2" fill-rule="nonzero" fill="#ffffff" d="m239.02632,123.49l-1.9,0l0,-2.8l-0.4,-2.2l-0.8,-1.9l-1.3,-1.6l-1.6,-1.2l-1.9,-0.8l-2.1,-0.3l-2.1,0.3l-1.9,0.8l-1.6,1.2l-1.3,1.6l-0.8,1.9l-0.4,2.2l0,2.8l-3.3,0.3l-1.1,0.8l-0.7,1.1l-0.3,1.4l0,15l0.3,1.4l0.7,1.2l1.1,0.7l1.4,0.3l20,0l1.4,-0.3l1.1,-0.7l0.7,-1.2l0.3,-1.4l0,-15l-0.3,-1.4l-0.7,-1.1l-1.1,-0.8l-1.4,-0.3zm-8.6,11.7l-0.1,3.7l-0.7,0.7l-0.6,0.1l-0.9,-0.4l-0.4,-1l0,-3.1l-0.9,-0.9l-0.3,-1.2l0.8,-1.7l1.7,-0.7l1.7,0.7l0.8,1.7l-0.3,1.2l-0.8,0.9zm4.1,-11.5l-11,0l0.1,-4.5l0.5,-1.4l0.9,-1.3l1.2,-1l1.4,-0.6l1.4,-0.2l1.4,0.2l1.4,0.6l1.2,1l0.9,1.3l0.5,1.4l0.1,4.5z"/>
   </g>
  </g>
 </g>
</svg>